<?xml version="1.0" encoding="UTF-8"?>
<svg id="bsd" xmlns="http://www.w3.org/2000/svg" height="4mm" width="4mm" version="1.1" viewBox="0 0 79 78">
 <path id="p1" d="m0.9 1.4c-4 4 7 23.8 9.1 25.8 2 2 7 0 12-4 5-4 6-9.9 4-11.9-11.5-6.4-22.4-12.5-25.2-9.9z"/>
 <path id="p2" d="m12.3 25c10.3 4.1 19.1-4.6 11.7-12.8-2-1-20.6-13.0-22.9-9.5-2.1 2.5 6.3 16.9 11.2 22.3z" fill="#f30"/>
 <circle id="c1" cy="40" cx="39.8" r="38"/>
 <circle id="c2" cx="36.8" cy="36" r="32" fill="#f30"/>
 <path id="p5-5" d="m77.9 1.1c4 4-7 24-9 26-2 2-9.4 0.6-13.7-3.8-4-4.0-4.2-10.2-2.2-12.2 4.7-7.1 22.6-12.4 24.9-10z"/>
 <path id="p8-7" d="m76.3 2.3c2.9 4-8.7 20.8-10.7 22.8-1.9 2-6.6 0.5-9.7-3-2.9-4-2.9-9.9 0-11.9 7.7-6.0 17.6-9.3 20.4-7.9z" fill="#f30"/>
</svg>
