<?xml version="1.0" encoding="UTF-8"?>
<svg xmlns="http://www.w3.org/2000/svg" height="4.8mm" width="3.9mm" version="1.1" viewBox="0 0 13.9 17.1">
 <path d="m3.6 7.2c.8-1 1-1.7 1.1-2.7 0-1-.8-4.2 2.3-4.5 3-.22 2.8 2.8 2.8 4.4 1.2 3.3 4.2 6.6 1.2 11-1.5 2-3.1 1-4.1 1-1.9 0-1.9 1-4.2-2-.3-3-.4-5.2.9-6.8z"/>
 <path d="m10 12c-.76.50.81 2.2 1.5 1.3 1.8-2.6-.052-6-1-7.1-3 .93 2.9 3.4-.42 5.9z"/>
 <path fill="#fff" d="m6.2 3.4a1 .61 86 0 1 -1.2 .1 .96 .61 86 1 1 1.2 -.1z"/>
 <path fill="#fff" d="m6.8 3.5a1.1 .85 89 1 0 1.7 0 1.1 .85 89 0 0 -1.7 0z"/>
 <path d="m7.2 3.6a.38 .62 2 0 0 .76 0 .38 .62 2 1 0 -.76 0z"/>
 <path d="m5.9 3.6a.52 .27 85 0 1 -.6 .1 .52 .27 85 1 1 .6 -.1z"/>
 <path fill="#fff" d="m3.9 9.2c.42-.94 1.3-2.6 1.3-3.9 0-1 3-1.3 3.3-.23.23 1 .86 2.6 1.3 3.3.2.7 1.2 2.6.2 5.6-1 1-4.4 3-6.2-1-.5-1-.4-3 .1-3.8z"/>
 <path d="m3.8 7.8c-.5.9-1.9 3.2-.1 4.2 2.4 1.5 1.7 3-.47 1.6-3.1-2-.3-6 .9-7.5 1.4-1.6.3.3-.3 1.3z"/>
 <path fill="#fc0" d="m2.7 16c-1.3-.68-3.2.13-2.5-1.7.13-.42-.18-1.1 0-1.5.26-.50.81-.39 1.2-.73 1.2-1.6 2-.35 2.6.94.31.65 1.7 1.7 1.4 2.3-.51 1.3-1.8 1.1-2.7.68z"/>
 <path fill="#fc0" d="m12 16c.96-1.1 3.1-.91 1.6-2.5-.29-.34-.21-1.1-.57-1.4-.42-.36-.91-.052-1.4-.26-1.7-.90-2 .37-2.1 1.8-.026.73-.70 2-.34 2.6.82.97 2.1.60 2.7-.23z"/>
 <path d="m12 12c-.16.29-.89.78-1.4.65-.47-.10-.70-.81-.60-1.3.078-.57.60-.60 1.3-.31.70.31.91.57.70.99z"/>
 <path fill="#fc0" d="m5.6 4.2c.2-.3.8-.9 1.8-.2.2.1.4.1.8.3.7.3.4 1-.4 1.3-.4.1-.7.5-1.3.5-.5 0-.7-.4-1-.6-.6-.3-.7-.8-.4-1s.5-.3.5-.3z"/>
 <path d="m8.2 4.8c-1.3.8-1.8.9-3 0" stroke="#e68c3f" stroke-width=".078" fill="none"/>
</svg>
