<?xml version="1.0" encoding="UTF-8" standalone="no"?>
<svg xmlns:rdf="http://www.w3.org/1999/02/22-rdf-syntax-ns#" xmlns="http://www.w3.org/2000/svg" height="15pt" width="80pt" version="1.1" xmlns:cc="http://creativecommons.org/ns#" xmlns:dc="http://purl.org/dc/elements/1.1/" viewBox="0 0 100 19">
 <rect height="19" width="99" y="0" x="0" fill="#747474" shape-rendering="crispEdges"/>
 <rect height="17" width="97" y="1" x="1" fill="#fff" shape-rendering="crispEdges"/>
 <rect height="14" width="29" y="2.5" x="3" fill="#c33" shape-rendering="crispEdges"/>
 <rect height="14" width="63" y="2.5" x="33" fill="#747474" shape-rendering="crispEdges"/>
 <g fill="#fff" transform="scale(1,1)">
  <path d="m7.6402049,5.6444817 4.2310191,0 0,0.8383138 -3.2349051,0 0,2.1697534 2.9193041,0 0,0.8383137 -2.9193041,0 0,3.5159864 -0.996114,0 0,-7.3623673 z"/>
  <path d="m14.99271,6.625802 -1.351165,3.663924 2.707261,0 -1.356096,-3.663924 z m -0.562163,-0.9813203 1.129258,0 2.805885,7.3623673 -1.035564,0 -0.670651,-1.888671 -3.318736,0 -0.670651,1.888671 -1.050358,0 2.810817,-7.3623673 z"/>
  <path d="m19.435773,5.6444817 0.996114,0 0,7.3623673 -0.996114,0 0,-7.3623673 z"/>
  <path d="m22.414253,5.6444817 0.996114,0 0,6.5240543 3.585024,0 0,0.838313 -4.581138,0 0,-7.3623673 z"/>
 </g>
 <g fill="#fff" transform="matrix(1,0,0,1,38,1)">
  <path d="m3.0087891,8.5700307 0,2.6708983 1.5820312,0 q 0.7958984,0 1.1767578,-0.327148 0.3857422,-0.332032 0.3857422,-1.0107425 0,-0.6835938 -0.3857422,-1.0058594 Q 5.3867187,8.5700307 4.5908203,8.5700307 l -1.5820312,0 z m 0,-2.9980469 0,2.1972656 1.4599609,0 q 0.7226562,0 1.0742187,-0.2685547 0.3564454,-0.2734375 0.3564454,-0.8300781 0,-0.5517578 -0.3564454,-0.8251953 Q 5.1914062,5.5719838 4.46875,5.5719838 l -1.4599609,0 z m -0.9863282,-0.8105469 2.5195313,0 q 1.1279297,0 1.7382812,0.46875 0.6103516,0.46875 0.6103516,1.3330078 0,0.6689453 -0.3125,1.0644532 -0.3125,0.3955078 -0.9179688,0.493164 0.7275391,0.15625 1.1279297,0.6542969 0.4052735,0.4931641 0.4052735,1.2353512 0,0.976563 -0.6640625,1.508789 -0.6640625,0.532227 -1.8896485,0.532227 l -2.6171875,0 0,-7.2900391 z"/>
  <path d="m8.765625,4.7614369 0.9912109,0 0,4.428711 q 0,1.1718751 0.4248051,1.6894531 0.424804,0.512695 1.376953,0.512695 0.947265,0 1.37207,-0.512695 0.424805,-0.517578 0.424805,-1.6894531 l 0,-4.428711 0.991211,0 0,4.5507813 q 0,1.4257808 -0.708008,2.1533198 -0.703125,0.72754 -2.080078,0.72754 -1.381836,0 -2.089844,-0.72754 Q 8.765625,10.737999 8.765625,9.3122182 l 0,-4.5507813 z"/>
  <path d="m16.202148,4.7614369 0.986329,0 0,7.2900391 -0.986329,0 0,-7.2900391 z"/>
  <path d="m19.151367,4.7614369 0.986328,0 0,6.4599611 3.549805,0 0,0.830078 -4.536133,0 0,-7.2900391 z"/>
  <path d="m25.704102,5.5719838 0,5.6689452 1.191406,0 q 1.508789,0 2.207031,-0.683594 0.703125,-0.6835934 0.703125,-2.1582028 0,-1.4648437 -0.703125,-2.1435547 -0.698242,-0.6835937 -2.207031,-0.6835937 l -1.191406,0 z m -0.986329,-0.8105469 2.026368,0 q 2.11914,0 3.110351,0.8837891 0.991211,0.8789062 0.991211,2.7539062 0,1.8847658 -0.996094,2.7685548 -0.996093,0.883789 -3.105468,0.883789 l -2.026368,0 0,-7.2900391 z"/>
  <path d="m32.413086,4.7614369 0.986328,0 0,2.9882813 3.583984,0 0,-2.9882813 0.986329,0 0,7.2900391 -0.986329,0 0,-3.4716797 -3.583984,0 0,3.4716797 -0.986328,0 0,-7.2900391 z"/>
  <path d="m45.391602,5.3229604 0,1.040039 Q 44.893555,5.8991322 44.327148,5.66964 43.765625,5.4401479 43.130859,5.4401479 q -1.25,0 -1.914062,0.7666015 -0.664063,0.7617188 -0.664063,2.2070313 0,1.4404297 0.664063,2.2070313 0.664062,0.761719 1.914062,0.761719 0.634766,0 1.196289,-0.229493 0.566407,-0.229492 1.064454,-0.693359 l 0,1.030274 q -0.517579,0.351562 -1.098633,0.527343 -0.576172,0.175782 -1.220703,0.175782 -1.655274,0 -2.607422,-1.010743 -0.952149,-1.015625 -0.952149,-2.7685543 0,-1.7578125 0.952149,-2.7685547 0.952148,-1.015625 2.607422,-1.015625 0.654296,0 1.230468,0.1757812 0.581055,0.1708985 1.088868,0.5175782 z"/>
  <path d="m46.924805,4.7614369 0.986328,0 0,3.0810547 3.271484,-3.0810547 1.269531,0 -3.618164,3.3984375 3.876953,3.8916016 -1.298828,0 -3.500976,-3.5107422 0,3.5107422 -0.986328,0 0,-7.2900391 z"/>
 </g>
</svg>
